<mxfile host="65bd71144e">
    <diagram id="ydhfXPjumZ8K32nz81Aq" name="Page-1">
        <mxGraphModel dx="2512" dy="1174" grid="1" gridSize="10" guides="1" tooltips="1" connect="1" arrows="1" fold="1" page="1" pageScale="1" pageWidth="850" pageHeight="1100" math="0" shadow="0">
            <root>
                <mxCell id="0"/>
                <mxCell id="1" parent="0"/>
                <mxCell id="76" value="" style="rounded=0;whiteSpace=wrap;html=1;sketch=1;hachureGap=4;jiggle=2;curveFitting=1;fontFamily=Architects Daughter;fontSource=https%3A%2F%2Ffonts.googleapis.com%2Fcss%3Ffamily%3DArchitects%2BDaughter;fontSize=20;" parent="1" vertex="1">
                    <mxGeometry x="-320" y="310" width="1030" height="730" as="geometry"/>
                </mxCell>
                <mxCell id="2" value="CLI" style="rounded=0;whiteSpace=wrap;html=1;sketch=1;hachureGap=4;jiggle=2;curveFitting=1;fontFamily=Architects Daughter;fontSource=https%3A%2F%2Ffonts.googleapis.com%2Fcss%3Ffamily%3DArchitects%2BDaughter;fontSize=20;fillColor=#1ba1e2;fontColor=#ffffff;strokeColor=#006EAF;" parent="1" vertex="1">
                    <mxGeometry x="220" y="450" width="300" height="40" as="geometry"/>
                </mxCell>
                <mxCell id="3" value="you" style="shape=umlActor;verticalLabelPosition=bottom;verticalAlign=top;html=1;outlineConnect=0;sketch=1;hachureGap=4;jiggle=2;curveFitting=1;fontFamily=Architects Daughter;fontSource=https%3A%2F%2Ffonts.googleapis.com%2Fcss%3Ffamily%3DArchitects%2BDaughter;fontSize=20;" parent="1" vertex="1">
                    <mxGeometry x="340" y="210" width="30" height="60" as="geometry"/>
                </mxCell>
                <mxCell id="4" value="interacts with" style="text;html=1;strokeColor=none;fillColor=none;align=center;verticalAlign=middle;whiteSpace=wrap;rounded=0;sketch=1;hachureGap=4;jiggle=2;curveFitting=1;fontFamily=Architects Daughter;fontSource=https%3A%2F%2Ffonts.googleapis.com%2Fcss%3Ffamily%3DArchitects%2BDaughter;fontSize=20;" parent="1" vertex="1">
                    <mxGeometry x="305" y="340" width="120" height="60" as="geometry"/>
                </mxCell>
                <mxCell id="16" value="" style="shape=stencil(lVjbUhsxDP2afdXYlq/PlP4HM4SSKSVMgF7+vvKkTlbychreNl6drKRzLMle+Ob18e5ltwT3+nY8fN/92t+/PS78ZQlh//y4O+7f5Gnh24VvHg7H3bfj4f35/vT75a5b9qcfh5/9H36fcN6RKx0V3J/TiqN8Wvh6sn/aP2t7rsreU6nQvjZlz2Nh296T1/+fyGN7Dso+U2Vsz8q+UsP2ycQrKxkAArFOqI9UEIApRw2oY2UbkCjpkCWn3gFAsRxI0B6Q3DWgg2ZhDbgUIoWsAFF0BdIqDpi0xkwJ8Nwd0LwlJkaANnR8FoajAGIQB7wBZCrgC+KATwpQAtSSOMCa6SJpAMTlQtFrsUrQAFAiOS2NWigApksbvA5Ac+Obm4AaqTkNCFDetVHQLrVIMX0M6P+neWgJlqQmIeos9RW045yI0wTRYJWR17VYQARUtzlq0SOKWnbkBECFrGW7RwXQ0BcSOS3XVR62EWzl1z+BmPDU5iAAEyK2Eqc0ISK2mIug/4j8rJoaLANtaogCgFmaOpxwieqGCNxSLQUfUT11CAEkBEgUJpcS2NUiJrurBYCYrqMOrYNGWWq29gmgAuK61CYteRTDWZsrAKMNIcppFpCQS+esrwBo+JE65Kcv/IvqI+LyJO+GtMRjz18LCKNrrgEorZ7cBCgorW4j6AQAfYtOAAZZ+jygTlWjQLVWqZWmuOaRhm1AoGB4iFRBWqXz26bFo/BsA+S1HrHaeUr7aHgwPMgsgIqAjCdG3jJtIECa+oNEhap3H7F0WgueXGWI8zpomcnQiMWBsnapD11o1JUZTwMSDlrOO1FrSaJCQfs8NuRqNvZArZ5tbZXhF1WNfibTWZLxGvW4MqrW+gABkjRVJY+LvbhrTjSyGUAAYYz+qzNWBhx4ay9nOLAT3Cg/qyMiiNaNNnM5gQbg/DSR4AOuG+q67vzsRuKuO547atmYIzH70SAv5owGZ6tkBzMTZt9RA+dRMC/mDp3X7NiFh9lsacLmxTYA7Eydb1FQqNWOWziR0j/jcj1NbZTIK0Xw+Sug/9jLw+W+6WH/9HS6rlq/t/dTsnS62+Lbvw==);lineShape=1;sketch=1;hachureGap=4;jiggle=2;curveFitting=1;fontFamily=Architects Daughter;fontSource=https%3A%2F%2Ffonts.googleapis.com%2Fcss%3Ffamily%3DArchitects%2BDaughter;fontSize=20;" parent="1" vertex="1">
                    <mxGeometry x="268.88453462112034" y="289.93477813989045" width="16.989535806736576" height="116.64456006116595" as="geometry"/>
                </mxCell>
                <mxCell id="17" value="" style="shape=stencil(lVjLUhwxDPyavapsy88zSf6DKiBshQAF5PX36cmWh5GWaUIVh2W35bGkVrs9B714vr18vD6k8Pzy9PDt+tfx6uX2oJ8OKR3vb6+fji/4dNDPB724eXi6/vr08OP+6vT/4+WCXD59f/i5rPD7FKeCiOUv/Dl9Eavk+u+bLyf83fF+g8/SLD5FiW0fX0WzxWcZfR/f59NX/JBO8DGKFhOgRYaSgCLBBuQkI5GAIWWYgBIkl/2ApUY259IlkppqEI0moBZpJGmtEm0OTSWSHJBiCDZgSAskoEm1SfcyN/lmQEERXQBvXGlzAzNgqChjUpSuNqBIIU9AEVOzAZUHoCbVPyGN/YCWpBefdCPka1myqxLGgZS1VQk2h9alkhxak2K51DAhpNNYr9stVZVAttTDXG+ld6YS0KOfh1wkky119aIBwg8yQOBmsDlANWImAXWK0BqQJJLGdVTJUgM6GQk1RphtWgOiZDKiI4naJ6wj+DY+S7D4LIUUdeG+xQdpRMVG85KBvpMKAX+2fiCsGH2SZoNn++9TEl/xTPLG8KIK1Wb7H/5kC3Mw9vDDzn6kp8KCdxydB9Ee3sldkkooDbyTFqUjALzrr07l2Kt/jg7fGL5J9+u/g09+/cL6W+dym3yJRgDv5gv1ZPxc53vTLyK8wHsnJZnjsxW5QG0I8N3jKd+azzdwPjQZH5zH4ucxsPoP71kCNRTAV68/jc+7O8eiJFKfGIIfgDhP890BtoRL7w18dVaZOt8P45svKBjIGly8II55ar6N18nftT6JMzpKtQ+IjTsJSK4bsURb0JvXXOTADjGc88ndDhrNoZ/db+BVOrMe6scMbqgSnnbIiJ1j+K1M+gC/5YQUjq4T5YK19xZwTK3Zs4DRJg1DxagHV1qcs+bmZvG9NmmwkZ0GSNG5CehNJcd3PaPGZsDfjshesJcJJGSqqwHa7CmSgFL8kb/cWEirC+7Swdd1kFaDnNWWCSOS2M3xzFXAnRfCDVVvfNFLNhCwrcM+Aa2h1+UkyU0QH2o4b1dW1I1dD6BbTvlypl62zw1vVINVFcrqrBfOHkI9nU5ilTHoFHtnMVv0n7eV4C+NEOJMpu38JIRw8/Vti9ES5k2DP6mAT4TWwb/TiZgkun5Vj6+EEMHf/oBnL72i13jglTF08neLJ/VM05lt90P4k7zAA1/YTEpPHt85P88vu4Q/H32J+D4eH17fWN4c7+5OLzy3v/s3nPjq9HZUP/8F);lineShape=1;sketch=1;hachureGap=4;jiggle=2;curveFitting=1;fontFamily=Architects Daughter;fontSource=https%3A%2F%2Ffonts.googleapis.com%2Fcss%3Ffamily%3DArchitects%2BDaughter;fontSize=20;" parent="1" vertex="1">
                    <mxGeometry x="258.63912707418945" y="371.50395928897785" width="42.15093090053674" height="43.135551654790255" as="geometry"/>
                </mxCell>
                <mxCell id="18" value="" style="shape=stencil(lVjJbhsxDP0aXwlJ1HpO0/8IEKcxmsaB425/Xw6mGg+pmRfk5kweJS6Pmw589/788HY8BPd+vZy/H3+fHq/PB/5yCOH0+ny8nK7y68D3B757Ol+O3y7nn6+P899vDxNy+vXj/Gs64c8s5yjnSSi4v/OH1sjPX77O+JfT6wrP5KPGV0p1H1/IBY0vVADeB8pGIFP1QCBTyVbA875ACBScFkgUkEClXLQAU0vAR6JA0wJyJ7AhRspapdqoAZUSU9Y3VHF02xfIgZr2UmUqEcQt2MCVRhUErrrOm0Ugdb9tC4jGRsB3cm0KiBPZK4GcKYIbJK6G3NlTcUBAuKRvSEI+4Fa54T/5F4HwkQ1BuzUWYuTW3DVeBJYM2Q5co8hKgAsMXHFUdUozUwAlQJyYtEqSIQV4KXlq+oYQKQF6TyYaAQerjGjctFulLDQQ6ZAp6MB5pgS45Ju1wbtOlm2B2BVYMq5fuY131HSVERVRglLTBohLQU2SVNBw7lVwp8wXYy01EGFv08DB+Ao8GDjD000aO8jPRdUbHKVkoGhPd7ABumjhgAY86u6A32O3bAUHukcqxZoKakOyzdvBxpeI2cAZeEbgNqoRVYWu6g2O6lq0jJT0QyXE1lmpcpDveYADv3MP4gqOJghbkh2egWyvdr3b76VHssmHKtmYfBGYKnCbTQwc6ala3T0wVdqhPd1BeB2SD3CGN1IbJp+z2YROl6HNWzjku7Mk8BA+eIZBnfkkPNvu4fsUvT2F9Fxb+nGn6DYJfK+Jt+YEScO296X+YRtfLMsKbE8Tb/T50m0jGg+aneBFxYBH/qotlgEEZWGUyXEYcdANKVqbbzVuO8SxD8erMS0BowvbGzhAt9ZgS4mMmhnYIFuNiYNMehEIyHwddW2TcTmgkb9S1QLTQI6o55yt5TLzo91Lrmg6GWQgRhvqtCRonWRvQW5qCxNWmxGjVYp7eq12L5Sg8m+v6VrxKCAaGy/VCKeqNOwtsu+hAVUCaxqNuAFxgyVHtZdkuUJx4KFRNinhqG2n4aUg9yK+LeBsjW8Fzm8+2b1leh5Blc/1bXH1/pLRsmZTtLU+pu20TJOhgq9wHI7R4lH2BLtGTXjY8aMOwSph9waQNFwApycz5E54YLDbcBDaNIXEdXAoYKkbONfgnjlSrvVE2sMP50cQANfL55pA0D88EA71tc8+QH6Mlx+3186n08vL/Fi6/r99HZVP88sq3/8D);lineShape=1;sketch=1;hachureGap=4;jiggle=2;curveFitting=1;fontFamily=Architects Daughter;fontSource=https%3A%2F%2Ffonts.googleapis.com%2Fcss%3Ffamily%3DArchitects%2BDaughter;fontSize=20;" parent="1" vertex="1">
                    <mxGeometry x="427.07574564221727" y="251.44249711707585" width="36.62167341882022" height="167.71985749568168" as="geometry"/>
                </mxCell>
                <mxCell id="19" value="" style="shape=stencil(lVjLUhwxDPyavar8km2dCfkPqljCVghLAXn9feRs2Yw1M73FbRnUY8tqt1pziDdvj3cvx0Nwb++v5+/H36f798dD/HII4fT8eHw9veuvQ7w9xJuH8+vx2+v55/P95e+XuxbZfv04/2pv+HPBOXK5gYL7e3kghVL5/+TrJf7p9LyI9xTDHB/IexQvZYqvlZj34wNlE5+o5P34SEnmeEcZ7CdRSlN8yeTTfjwTz/kWPQFwPpkyT/E5Uwr78cWeT/bkwfuFkp/imamC93tPbk6YHcUIAIHqzIiUKKMVEtW5BLFSQYBMYgC6JqiBF/JzEfTYHCKRpzCfqj5hsILSKM5l000mQCPlRXQzwFMBx/qx40EkyoDXoVKeF0h9xe174CjUeUOdidvxoS/f41UJ0PuVZtHEe3QvheLMu0ABvD9Fu38mARVLpf975Os6cbcvspZ4TlhLzAIAQjzvSFMQANCbblknlAGgRHLzmcbc5XgbIF17Bik8vGqVu7gNQIbyLo5kvmoqFxnwWob8DIBKcgUA6fo2AIkEMEMBPJ+SSp4H1FZAdRbAKAchmanBWgfU1Ny4LAvEtSWMbpcuzHuALBZw5VzjCoA6gwKc2VKFEiC1d9YlAK1QKcTVllAOpTNhAWAMMCqmACRLCmDTDjPU4U0AMgxtS0bImDIG2CvH/dx2j9UknaBWtsKxBVTA70aNNQBfubTKAXVoBZQVIAKtbBdoBYCmYfOORlRqXYItANJVkzClLt1H7ErZit9Iv5tYJgsQlINaLwOoWGeqdT5crpHpk4CVP9RjDahpSSfnoqUE0LRqtLKRBLKvVGuK1eMGUGk1/Xlmn3pcZIpzstRQwxWQPalWjQOWDdbObxzosFzbjkl1a66Dj71RbgO8lT6BKcQh7mOWgZYvxu6Yxxn1JrlncY3l0/uMPLpYPyZwdFNHnpw9IJSwVsgCcMtdjxnNUqIUdJAxAL1+gKh+5a5igmZJd2wdIh4EPPfLOwAMe4MeovVvHnolnUCdcYg6MaKkHRUzRAc4LIk1Mrn0MX9bYIjnhlsCMShbWcUXSKRs1aV6ODhw/yQy4vFHALUHcwVUYjO6+eRmpZAISRTsQK9NgtFN64QZ8QL9dugjyCIemYVgZ8/WqUG+wWpvswLoDlg/tTAbOwAz3LYFAKOdLVibaUABnCW0CPwK5qwOaTzqf66Xf1Fg5IycHWw1Hn0FW1m1Zophvp/7ank9Xn98fCJ9OD09Xb6wLv9vP6nqo8vn2Hj7Dw==);lineShape=1;sketch=1;hachureGap=4;jiggle=2;curveFitting=1;fontFamily=Architects Daughter;fontSource=https%3A%2F%2Ffonts.googleapis.com%2Fcss%3Ffamily%3DArchitects%2BDaughter;fontSize=20;" parent="1" vertex="1">
                    <mxGeometry x="417.09781581193806" y="244.7018329837316" width="52.98426327810093" height="40.626609740358965" as="geometry"/>
                </mxCell>
                <mxCell id="23" value="prompt&lt;br&gt;" style="text;strokeColor=none;align=center;fillColor=none;html=1;verticalAlign=middle;whiteSpace=wrap;rounded=0;sketch=1;hachureGap=4;jiggle=2;curveFitting=1;fontFamily=Architects Daughter;fontSource=https%3A%2F%2Ffonts.googleapis.com%2Fcss%3Ffamily%3DArchitects%2BDaughter;fontSize=20;" parent="1" vertex="1">
                    <mxGeometry x="480" y="320" width="60" height="30" as="geometry"/>
                </mxCell>
                <mxCell id="26" value="action" style="text;strokeColor=none;align=center;fillColor=none;html=1;verticalAlign=middle;whiteSpace=wrap;rounded=0;sketch=1;hachureGap=4;jiggle=2;curveFitting=1;fontFamily=Architects Daughter;fontSource=https%3A%2F%2Ffonts.googleapis.com%2Fcss%3Ffamily%3DArchitects%2BDaughter;fontSize=20;" parent="1" vertex="1">
                    <mxGeometry x="170" y="320" width="60" height="30" as="geometry"/>
                </mxCell>
                <mxCell id="29" value="" style="shape=stencil(lVfLchoxEPyavU5JGj3PjvMfrjIOVAi4MM7j79MEL6xG0CnflmVammn1tGYnfXhbP72upuDejof999WvzfNxPemXKYTNbr06bI54mvRx0oeX/WH17bB/3z2ff78+nSJPTz/2P08r/D7jVCWXEyq4P+c3XnL+9+LrOX672S3jq9TUxTdx/n58VCnarx9FKwEUKbEDBCeRABIS9j2gSFQCSJL7HTSJb/cB2Ul2HQBVKSEpY72eVCT5UdVtQJPUOgD2ZLQWFR96QJFWCKCI72soSUK4D6hetAdUXkPNM+sXQBVHDq4FW3SDWEgNrUntaW0omtQAQDGAKonQel3vAoC8WUpxXm8BSER8FTU0C/joqNsA7JD7BnLQhiNHfUl5sUUjci1xXm8BKKSIPB5EE2X6LlauOIjKdsji1AICoQkA4zM4S2ZkqMEPAE9SKkGaOTnsyXoUYnIWEFkHwVWSBTCfQYOVPOxAAGiwVIcaCK3gJLSBJeKVJ/l7C2BaWqh5cdTKmhRVj2JiOSUpQ88pA/i5h5cNwQ4iz3fasuWIb1QndQSQlODWeTCaSryvePEDgN2j6NGaLYDdQWi5MBwc0/fnAV6aYSnOVd2+2rMFoEWU6Pt6Ly9uOeaVGE9iTytOJvIBKPS05kp9RtFBfUqYBQLxe41SewCqaoRWjGxtmGcSEV/AyNb7PSYm1kC+Se5bNHA3xlBo7BtTHzMmD9fovRJLZCbvOeHr3KqE1MGUuCyceJMNnQK8BDt0M1mrNWHHr2c76jmq0EFvKIYQ6dUyCa6I2jw6Jtl4wjy4iNXGEysNmGPVxAemfoyAlp7E2svPU+w1vpL1Ndh29HOCt+M/+wX233g8XD/3Xjbb7flrcfm//TzEq/OnpT7+BQ==);lineShape=1;sketch=1;hachureGap=4;jiggle=2;curveFitting=1;fontFamily=Architects Daughter;fontSource=https%3A%2F%2Ffonts.googleapis.com%2Fcss%3Ffamily%3DArchitects%2BDaughter;fontSize=20;" parent="1" vertex="1">
                    <mxGeometry x="263.32346693878026" y="506.89252493426056" width="4.866934259033379" height="45.36635148559045" as="geometry"/>
                </mxCell>
                <mxCell id="30" value="" style="shape=stencil(lVjZctswDPwav2J4gsRz2v5HZuI0nqZxxkmvvy9Ul4oByavkzccuSVzLlXb55uXh9nm/S+Hl9XT8tv91uHt92OVPu5QOTw/70+FVP+3y512+uT+e9l9Pxx9Pd+fvz7cTcvr0/fhzWuH3mdcot4mUwp/zDylQrf9++XLGPx6eLvCdWrd4phqu42OgFA0hR6oJECI1e6KsOzRAyMR2h5IoFECo1IMldAoREDolG3QtVAAhRQp2Bw4kDAiZug2aGzGIQbPu6tDyiGqdIGO9mSBU83VCTlSyIXQNugNCoyiGIHMaVgklELsdtPag94qGyDaGQg3EUBqJDZp5lHKVUPPonLnSTB3sUDt1SyhMItcJXCm69m6UQGs0zYntJZ3BCGJojbob0UAR7KB15WoIMcEjaV2jyxKcUKmULD6MrK3j2Y+Pighan33EATaeNGri8Sje7mcnjNlYxwtl29g6CKAnFO8EKZIgxQvBJyhBgm4gFp9JQAsp/r9Ez11NAvROE9RtQutoqWv4YAvGFMGdoAWLHp9QQtkL9sb6lUrz50cNWhZTPxJ8DV/4I/kvlC0+wetD8dXicQNpvOFDDVqHzL5zAPTGXgwk6odGZTGQKJ/du5YNgZBR/gsBQufRy7K7/DDKv4x0v9WLsUA4fMbzouex+DI8zzvjrVuCtcSjeSnecqmCgfN0rZe7YRhfSdEL1jQxIILGvqPVZgpIKYu3BmpH0MxwGSeecxRgU1QZl8qFCawgS2oqnQlsAfrSGoeDmwmzPV/3Q93XrWMhLXXozlzoNPz8NYsWnAlkKF1Zs2SDvrjd1hkqjm4LgVGrXyq2uyVjc1295eoyLqx1QvL3Qc/QmEbxeZ1cG2hXnRexlVNfWBAh+wli7JVj8JpU8VORzrTTDD0RyOrC1GlzReT2x7/zRKutQlXzmp3xJRsXT74dulg10bYCumMF6y89WtzA+/XDBt51tTYVunTCENAZ3+ETY/RaofgI1tfnRWdiG9TH7D2a4tFDdfEecANfvfxO5wH9Vv3D5RQvWJ+9+EYsvm1YoMt6gfU/+mZmG68f3l4D3R8eH89vkS7/96+N9KfzK6f8+S8=);lineShape=1;sketch=1;hachureGap=4;jiggle=2;curveFitting=1;fontFamily=Architects Daughter;fontSource=https%3A%2F%2Ffonts.googleapis.com%2Fcss%3Ffamily%3DArchitects%2BDaughter;fontSize=20;" parent="1" vertex="1">
                    <mxGeometry x="255.1264753092129" y="534.0060434039618" width="30.751916901863815" height="27.527037258052196" as="geometry"/>
                </mxCell>
                <mxCell id="31" value="" style="shape=stencil(lVfLbhsxDPwaXwmJFPU4p+l/BIhTG3XjwHH6+Ptya2i94tpT5LZec7TUaEiONvLwvnt62244vJ9Px+/bX/vn824jXzbM+9fd9rQ/29NGHjfy8HI8bb+djh+vz5ffb09T5PT04/hzWuH3BaeJWCcUhz+XN61S4n9vvl4Ah/3rEhCpOIBSrPcBqVItI4ApCwAoyfiF2kgTADBxGgFKBX0hUHSACPcg1W+6KNUGALoCBAoRACLVOgCyUNb7AK6kPAC0UAgAYLTGEWApgT0wUxhTSkIRpBTtpMcvSCYuAKCUxi9wg9KITDGMACEBe7Dl2hAfCxUgpUIiYzx39d5Wkqeo9gRvhod+QvPy/RDvhDeXPQVUBxTGQguUgeQqteDC4WEln43tJgP5RM99wPqsJD4fxKUkX8SBBLBjNaw+nwLoSXNLuLKP1G/xObn4jPJp1EatMd6v1RK7eEUdxdQTXXwF8SYfTS6+IT1YJTUfD3pojCTZ5wNqXdf0oCHAXYwLNkG4aWsMt8MCyYc+E6/hjLTcd7aQGuw60YcLYt6Wzy4+gpONjZJfH1Zi9uRYPFC+MAm7eEbKL8S+EhU12eCVGWH+VonFdXFKaP3Px7vOUKDybWwWJzbutXPPAalrPYUy6LXmsdjVunSO77k41/xtVCqqRqU8DhfrRxGQpLbe6ICMBqSiye+Me0gN0ppL70+zoclwWBfunm3hsRJgqdiIHIWXG1Wg7Jp6xgufiJxoC72HzwZiHvq3Aep7hXldBcXQVmPV3LSgbhFWLsUMO6KpzaQsrgTIWRogjwUxZQl4NYCb9QaAvK6M3LQEoin1BBaAhE9u/YUMNj2dk3oAukPU2Y8tAEgbJVF19jLgTm9yTqucGnCkeWUSDIBGWw7+MjfxijqTDUP2ANhotLeVhTaQ0fn8lff/AHu43rBf9ofD5YK+/N/fyO3V5TYvj38B);lineShape=1;sketch=1;hachureGap=4;jiggle=2;curveFitting=1;fontFamily=Architects Daughter;fontSource=https%3A%2F%2Ffonts.googleapis.com%2Fcss%3Ffamily%3DArchitects%2BDaughter;fontSize=20;" parent="1" vertex="1">
                    <mxGeometry x="443.8856550665412" y="501.9394389341601" width="4.046844518453976" height="56.40406612695305" as="geometry"/>
                </mxCell>
                <mxCell id="32" value="" style="shape=stencil(lVjbUhsxDP2avGpsy7KtZ0r/gxlCyZQSBujt76ttxmGt3T0Jb8Ho2Loc3XbHN2+Pdy/7XQpv76/H7/vfh/v3xx1/2aV0eH7cvx7e7deOb3d883B83X97Pf58vj/9/XI3SU6/fhx/TTf8OeECpTaBUvh7OkiNqvw/+XqSfzo8z+QjqZNnUt2WF5IwyMdC0sD9gaSMAFMRPBCZKg+ASoLkK8U4yAtNf23Jm4fKeD9TYiCfKTqLqZRteQ6UR30ChQDkhWp28gwClkNX90P/BvyTE/F4f6OWgbxdl0Z7mQQ4NAsVB2jdBeuARjJqZD5W4FIJ3oTJBvCCmM06+iiRgiBIpjoGmY1WgNZSO8k6IEcSELZiLHCAQgHErTDF0WhzQ0MvFCqjDSLU6jagGlPH3C+x59I6IHcFzoBCFXipKuU65nLqJ6uAlr3RtVEAKjUlHrNhugK8oJnKaLTifFP1+aZCEbDVAEU9AGWcAXR0qxZYYiaAe6FC8hmgjdRQnKIGyA6gPTLrgHNRmQEKoIYBYvMARYGrnkuXAKXXiGtVKpRkYTRyq/h8uORW6XG9NnDi69IlakivpNeSr1BOHgDpXX0h03Px3ALU6AGCvNR8B52SFr2gFMQDFEVa/VBiRqMhY0og9XFgOPacu/4s1OlCjronLEXAYLJiRCMFjXrFTXYFemEZCIVtdBnqmR+uZZPC1r7CV8X1+9OA2LvmjE0Z2NCMCuMLreEuZ43cNa1EBahUxXeIWolRp46efTXCWcAauZtn7CSDMmCjgo422AlSSdpinsEpJItOLbFPmuuA6BMin9m1NYjW0a02LAsw2kY2ZwM32CFsmK6jDcxwiLMp0lUB2ycCAJgCMgJSgvsAFz/12QbX0EKTPVtjhG7l6IeH1leK9Q2r9Hw8Jxzk6rQguZUyUQWAuLSg9JOtpdXtoLb0ZZSgVMa6ZycJbTS+xJjP8NbtYmb7TEVLn68XRjukf+6pO5NX4CD2q4aRJIESmTrD5vJAn9Q730w+oAj3WjXTH416VoAXaRmB/rYpsfc/6iFhoX/s30025F25tqwXYG/wndxSpoAp77NfhS7L24+PT1APh6en0xes+f/9Jys7On3u4tt/);lineShape=1;sketch=1;hachureGap=4;jiggle=2;curveFitting=1;fontFamily=Architects Daughter;fontSource=https%3A%2F%2Ffonts.googleapis.com%2Fcss%3Ffamily%3DArchitects%2BDaughter;fontSize=20;" parent="1" vertex="1">
                    <mxGeometry x="434.32819414927985" y="501.9902739045681" width="40.47716220086347" height="32.019516556321705" as="geometry"/>
                </mxCell>
                <mxCell id="39" value="CRUD" style="text;strokeColor=none;align=center;fillColor=none;html=1;verticalAlign=middle;whiteSpace=wrap;rounded=0;sketch=1;hachureGap=4;jiggle=2;curveFitting=1;fontFamily=Architects Daughter;fontSource=https%3A%2F%2Ffonts.googleapis.com%2Fcss%3Ffamily%3DArchitects%2BDaughter;fontSize=20;" parent="1" vertex="1">
                    <mxGeometry x="340" y="520" width="60" height="30" as="geometry"/>
                </mxCell>
                <mxCell id="77" value="CLIENT SIDE" style="text;html=1;strokeColor=none;fillColor=none;align=center;verticalAlign=middle;whiteSpace=wrap;rounded=0;sketch=1;hachureGap=4;jiggle=2;curveFitting=1;fontFamily=Architects Daughter;fontSource=https%3A%2F%2Ffonts.googleapis.com%2Fcss%3Ffamily%3DArchitects%2BDaughter;fontSize=20;" parent="1" vertex="1">
                    <mxGeometry x="-290" y="350" width="130" height="80" as="geometry"/>
                </mxCell>
                <mxCell id="112" value="" style="rounded=0;whiteSpace=wrap;html=1;sketch=1;hachureGap=4;jiggle=2;curveFitting=1;fontFamily=Architects Daughter;fontSource=https%3A%2F%2Ffonts.googleapis.com%2Fcss%3Ffamily%3DArchitects%2BDaughter;fontSize=20;" vertex="1" parent="1">
                    <mxGeometry x="55.400000000000006" y="631.4000000000001" width="539.6" height="319.2" as="geometry"/>
                </mxCell>
                <mxCell id="113" value="REPO" style="rounded=0;whiteSpace=wrap;html=1;sketch=1;hachureGap=4;jiggle=2;curveFitting=1;fontFamily=Architects Daughter;fontSource=https%3A%2F%2Ffonts.googleapis.com%2Fcss%3Ffamily%3DArchitects%2BDaughter;fontSize=20;" vertex="1" parent="1">
                    <mxGeometry x="175.2" y="711.6599999999999" width="300" height="40" as="geometry"/>
                </mxCell>
                <mxCell id="114" value="" style="shape=stencil(rVjbbtswDP2avBISdeVz1/1HgaZLsCwp0uz296NnyLUo5xQD9uYoOhbJc3iRd+Hh7fD0ut+xe7tdL1/3P4/Pt8MufNoxH8+H/fV406ddeNyFh5fLdf/levl+fp5/vz5NO6enb5cf0xt+zbgYKfgJxe73vOJJwt+Fz/P+0/G83p+opG5/Isn39yemmPv3e6oJABLl2gMSpQgAlYL0AKFS7gOyo+I6AGsQKgAwFe4B0qK2DYhU+xOCnoBMyuT6qAah7DAgdgAlUpAPGlbDm2txuwcIvdPKTAHKmEwqHUADLYC4XCj10stYS0Ut7n3QlQxMKoFqL76SyAHiSqEaekCFPlQm15+gKwHIu+YmtQWQiPk+QKJlukozchtQKfcmSSAG4vPOkevlKoUi0IYekXqqdYURYJH/AhBIRFUi2AIScKJovgwAQVQ7C1jFYVuvnkq1RyAmUhziKhQB17GS9zauFZikSW8qkwIckJ8CeKCagcBjpmSczq2ibzvtW0ouAK0bQBtav6u3gIB4KDaFFOCAD0UtjgMAEFeXv1cAqG8mzoPToBxr1G1CLEZuA2RIiILrhgwnVOi0DD1IAdAH1wxYyxsQp6UxjgkEfND6bZrWhzkaKUd7BCoDScPuLSABr+NIhJYylNTL+LKKK5oe4lDxZemU/w1geru2CFTwY7Aj00Q+qjPDjKU5lYFJQauAaXPc+tg2ILfGvLRqIQ+I0xFMzPSQWjHcBjDVPoO0Z6CECL4JYRloMixMOkYap7XHIHnz0NunoQydUNpUuBr7IuCBs21yEddKnZ3FzLqCTfJWGsoMyjivYu6J07ihG4EPFPooqZFoTtTXmQuBg100k+/bg15R0J0m2LrnGUrVU+pvNBXOxa5l1qIiaP0w7TGsX46SmZNg8Ln17vftDnX/Nn207eoMarTks9mO7lWqBDPPO/JIORpoMfvRmDpdHO37Yf6K7QVqDypBG+8PgCutoqabLVPudpn21h4P/dU+YFLRU8Tj5r99Xfhwvz68f8p4OZ5O85eQ9f/204cuzZ9NwuMf);lineShape=1;sketch=1;hachureGap=4;jiggle=2;curveFitting=1;fontFamily=Architects Daughter;fontSource=https%3A%2F%2Ffonts.googleapis.com%2Fcss%3Ffamily%3DArchitects%2BDaughter;fontSize=20;" vertex="1" parent="1">
                    <mxGeometry x="201.63868103029972" y="769.6520582036474" width="3.8164375416081815" height="42.70121625209175" as="geometry"/>
                </mxCell>
                <mxCell id="115" value="" style="shape=stencil(lVjZctswDPwav2J4E3hO0//ITJzGU9fOOEmPvy9Ul7QIyevxm6PsQsSxAKhNfHh/fXrbboJ7/zgdv29/7Z4/XjfxyyaE3eF1e9p96K9NfNzEh5fjafvtdPw8PJ//fnuakNOvH8efk4XfZ14gDhMpuD/nB8lTcv+efD3j97vDDJ9JyoiPlPx1vJDLIz5TBvZ9oMwjgcklQChURkL25MGJgjpoCIlqBYTaDtAJTAzeECMFPxCKPgFOR6E6vqHUlpdVQioUR0LVuEWQtkWea6XAgNBdbAT2xPk6oSTyY1i5kEcEbvY6QYjlOkFdrOMbJJCA0qi52euE3MpxncAkbiT0VK4ThIStD65cJ2gQs3E6UAFvYD2ASVyiCDLN6uLotGamgPLm2uQy0wP0QWymtQcEcCRRQY5hjaEFep2g1Tp2mRCpgEyLKnh8g0+UEKFYpwsxkIPijUI1kSBGipfRviMBtS21RfCCR21S8f9zesF7dB62OXPkkH2mas/vUIrFtjxHAZ1HWtVf8AUoU8RKWWsKFLV33b8LoeIDyZjgQBHjazB4QXNQmrmuAWyfrcM3FMBL+xXhdcCke+xXivWe81cbf40PmGiTwNjGHyR4wo/x93CIK56tgFEByaIr3ijQSvkuAehWc5fAmHKyeCTgxeJ1o0EIJTF42IDE7geujcKr+mITf9hAF/iA87WGx/bNmNQE4gZtJ0xuk3mdkO0ECDq40RuSbaHxhiSDlWRKuCYcpVEzOunRTsfcctSnJN7edeUzC5TuYGiB4m6v70OxBXqdoFEa61q9ggtUsPeDKTMgrKxCGZU29W60ZmprGWf3bPqsM+Jiz+zyXic42720n6F2ofcHN9aG9O15nRAojU5Mmyyo71ztUqepYXRz1IY7Vp9GOoI3aDWXMdVaTGiTjdxO3Am+hWGd4K0gSoFdQK+/pjY0bhGE1UvT/OzuiPqe7q3R3E7zjU2Hgrmd4k5ZWpZ615B2J1kPUluMO153VRAjZxcXvfGjUnV2sGneKxB0n6szfAR1p1Jc3FYYnscsLopHF64+tzs+wLt7n8MzPLafzHk8vDw5uxgpHn0aWFzOFB9QwTVrM7wH/no7mBXvkMasJif7EH/fF6zbeP1x+Vz2stvvz1/b5v+3n9f00fnTXHz8Cw==);lineShape=1;sketch=1;hachureGap=4;jiggle=2;curveFitting=1;fontFamily=Architects Daughter;fontSource=https%3A%2F%2Ffonts.googleapis.com%2Fcss%3Ffamily%3DArchitects%2BDaughter;fontSize=20;" vertex="1" parent="1">
                    <mxGeometry x="183.16642202392472" y="789.5676450269234" width="40.226172279001815" height="35.2021390928212" as="geometry"/>
                </mxCell>
                <mxCell id="116" value="" style="shape=stencil(lVjRbtswDPwavxISJUric9f9R4GmS7AsKdJ0W/++9Iw4ER3f0Dcn5lkUeXeiPaSHt+3T62bg8HY+HX9u/uyez9shfRuYd4ft5rQ729WQHof08HI8bX6cju+H5+n369MYOV79Ov4en/B3wrFQ4RHF4WP6RyvV8O+f7xNgvzvcApQ49wAhTeuAZLdjD2DSsg7ImWrpAE1J2jpAAqXaAyrlCgBCza0gFOI6oDCl0AMiqQJA85uujRLYdM3UtAdkCmAFe16VDlAUAlogdoBEieEKuaeGFFIESD4l60wA1CiVUg/IfOnM/cY13zhjVxHAJetD6wBsdUNsbSR9p3nu/X09NCq9HmKhAlaISuoAEW76enumBqSS9Tn1zycB+ViLXDoUQZMDtb4+AdaTKScXnkE1TfrZhUfQ3krCLjyA3KMtLj4eyD4m73WWTgbxQqIuPgHjipW4+GKifBqF3uisV6Ca9nxdUAHFF2r++Q3lb67pxEIRWFDkhbggG9RLy8KR6VJlH468gYK4cEbJk/rcEXeC32qkAkUbfDjD8AWRoYUsRYt4kPzhZZYCZFVIPIsDqLtezuabcERK818vwoBImT2JA+6r0caLVlB89UQIpGDY+Gr86O59PqZKPF/J4jxJgJk2X7kFrAQRACRT7ht8JdR9Qoj3TTslGfSs2h56xtmuGBSpZQ+wyUEQ6aI/KrJSBSnZGOzsQWairBwuCw2PAxbYhC4mARvh0ERmOblpxoZEAbrXfCnKDFDYapu0S8+NxnDQbfOUOgOMTGDT4xzcN6K1i0DuA8zF3ftDhP5iw7r0VbIyIEEYv92xfW3+2guHm5m0QTLlxbBuvY/oHcg0zx6ALHsUdfWAilaI3jZGOuLJODvbCNi5TcO+cwqtL7E3GgM0MHDZWdKSBxSgIDPXslgBccPM1/HbWq2AG/ZCHRcAQXuQyzvSDQBp9Ouv7P8H2MX1C8HLbr+fPjDc3vdfFOyv6WtEevwE);lineShape=1;sketch=1;hachureGap=4;jiggle=2;curveFitting=1;fontFamily=Architects Daughter;fontSource=https%3A%2F%2Ffonts.googleapis.com%2Fcss%3Ffamily%3DArchitects%2BDaughter;fontSize=20;" vertex="1" parent="1">
                    <mxGeometry x="424.6864964302761" y="777.9910314356875" width="7.54287601646952" height="54.77808030619469" as="geometry"/>
                </mxCell>
                <mxCell id="117" value="IN MEMORY LIST/MAP" style="rounded=0;whiteSpace=wrap;html=1;sketch=1;hachureGap=4;jiggle=2;curveFitting=1;fontFamily=Architects Daughter;fontSource=https%3A%2F%2Ffonts.googleapis.com%2Fcss%3Ffamily%3DArchitects%2BDaughter;fontSize=20;" vertex="1" parent="1">
                    <mxGeometry x="185.2" y="841.6599999999999" width="300" height="40" as="geometry"/>
                </mxCell>
                <mxCell id="118" value="" style="shape=stencil(lVjLUiMxDPyaXFWW5Yd8Ztn/oIqwpJYlFLCvv195Ux7GmqRT3MKgnrHcLbnlndy8Pd697HcxvL2/Hr/vfx/u3x938mUX4+H5cf96eLdfO7ndyc3D8XX/7fX48/n+9PfLXY/sv34cf/U3/DnhArF0UAx/Tw+aUAv/n3w9xT8dnlfxTClM8VqogPhIpc7xgSRdjk/Ec3xNJOD9hcK8nqIU5XK8UmhzfKTAIN9AKU+AnCmDBFj8F5JSywCwSSFFSugLjYJOACnECjiIFOcvSBhPzgMyxZkF46WAXbVtjXPStsgIliRMscyANJR1HpAo8gwIFMAuSfVJF5IChGevm4kWSiADI0njvCBKQEgpjzoZ8QEK1VSTmosPYIMye6EGamB/chrpLRxDmeY6RLkUAlXw/hJG3S6VTw3sZ5FB57KfkaQCgG2oI8AqswGA1b4DKCmgoDKpKwMhBRxbr9KZg1hhKVclnlUtkSrIwbqn6y5W+6gy1XrJnHSy0gNL0jxkuQDqqIzzACWZc8hCFSypsT8TChODpFv20isNNovWfNK1QmkYoM7tyJjJgGkDNAdoVMC2dsBMnFGpoB8ZwGnJqEQNzwB5XpIKJM4AnDwAia/pSHEBJHjwGIDjBoC+UH1N25IUMb3p8j1p0DVaGfZmva2Ih+Kl0YlDORhgbqxdGleW5DyPQothSbuKM3kXpNa6kXeBzdiIi+oBFX1BB00rgGK1+i9UaAwNUDYlCsVnFceeh4iMWAjeieni/i5+wsmVxyovJuHscISnaN8m1zaEMmZO56yt5AIuav+FBI1JF5P6JTWkbyN2U9SCtvXTAPF9pmIroG3U/GpsQM3VTsXkAAznEuM1OruUIcDE6fxSarBGLUU3BpglRQ6xLn5q8Q517Nt5w7Q5UUTg3GCWrM7ii0vnuWT6nMm9MmiYq2zOYTG0AlmH61+ZPtQ28mJrV7YygtZnbic6W4lr2px9ngGLmTgfL0MHq9EHmRNzeHkmmnm4j/Ozkm6+YFM3oMFMp8/ZDBYa32QMR2ve0IAYxhG4AMrQ+/kRtG7EynDg60pzU3GBXsNW7MyJFRw6FE1pTkpGvV65CthcNjDIgWW0uVVbQtcxzL4cSoX3Pc33jHplBPIHnPU1RlOcb5N2+iQ0FnulasPSpjLHd8cIKBA/RTfcLsR7aItHxWyKce+3JgvWE73V654D3s+pa3cB3xtsLvT64AG6V/BmtQ9bMN5V2YdDuRDvjkEjDBEciDfx6CTfeDybLvH7gyPAJAgE+tkL1evx9uPj9vbh8PR0uvxd/9/f9tqj002x3P4D);lineShape=1;sketch=1;hachureGap=4;jiggle=2;curveFitting=1;fontFamily=Architects Daughter;fontSource=https%3A%2F%2Ffonts.googleapis.com%2Fcss%3Ffamily%3DArchitects%2BDaughter;fontSize=20;" vertex="1" parent="1">
                    <mxGeometry x="405.1995938381554" y="769.6504993786389" width="47.86145503506001" height="20.68705681323254" as="geometry"/>
                </mxCell>
                <mxCell id="119" value="datastructure operations" style="text;strokeColor=none;align=center;fillColor=none;html=1;verticalAlign=middle;whiteSpace=wrap;rounded=0;sketch=1;hachureGap=4;jiggle=2;curveFitting=1;fontFamily=Architects Daughter;fontSource=https%3A%2F%2Ffonts.googleapis.com%2Fcss%3Ffamily%3DArchitects%2BDaughter;fontSize=20;" vertex="1" parent="1">
                    <mxGeometry x="235.2" y="772.8600000000001" width="170" height="60" as="geometry"/>
                </mxCell>
                <mxCell id="120" value="IN MEMORY REPO" style="text;html=1;strokeColor=none;fillColor=none;align=center;verticalAlign=middle;whiteSpace=wrap;rounded=0;sketch=1;hachureGap=4;jiggle=2;curveFitting=1;fontFamily=Architects Daughter;fontSource=https%3A%2F%2Ffonts.googleapis.com%2Fcss%3Ffamily%3DArchitects%2BDaughter;fontSize=20;" vertex="1" parent="1">
                    <mxGeometry x="30" y="630" width="260" height="98.34" as="geometry"/>
                </mxCell>
                <mxCell id="121" value="" style="shape=stencil(lVjLbhsxDPwaXwlJlCjpnLb/ESBOYzSNgyR9/X25MLQxqd1JC+RgbzgWHzMktQe+eX24fT4eUnh9ezl/O/463b09HPjTIaXT08Px5fSmnw78+cA39+eX49eX84+nu8v359vFcvn0/fxz+YXfF1yl1hZQCn8uDzot3/Tvy8X88fR0Zd6pVWMeC3Hft49MuRtAyiQMAJW6PYF5PNkEJD3BRpAVAEJIQhItoFNEAA3axlAyxbIPUI+5WECjLgBQKbABCFMFQedATSygkYAYcqZqg65MCRQuN8rBAipJ2AdoTpxLLVMClS6dJFuAngCClkxsXWqaJeCS5iTYE6pWuu0DahxEWAGZcgQAdYB9HRi4VIWajUHCqMw2QJlj6a2JziCtLfos5TrouA2Y2KrsyoBLWtdq9cBaGZDWNgWdCvUMANWfEDukRmuULPkqFcButS8uq1DRrVO2XSmNsmy3yUmfEaqtp+HusA8joG377P0JFADtuhCzsy8g3q5duDj/GyBdV125rk0VjZFpjggFoAK17665jK6/Z5+d/2tFtgEqWzfY0uj6exn1FcYi6IWCc0k5h1ziQclrAFBNV+XPLmFWtzIFjXTZJl2G8WRXlxbQYD9t09Qpg4h7EbiGzSQop8H3ukgVFS367qu6Qbzmkb9/1GXx80N1j/ypE6+HsPdo3Xx+AtZx9flH62AMa3zvjRcVYBuAOlGnYjO6jAKU0uZVsMyCD3qjG2cy9oa95tvdhE0YoMNi3jhR0GEaTwL7r+rG9V9dIDsSZh7r4lqGNJrB3loh9oTa4fKl62K1J+gakECWdJdyXFX1IfFI95VWOSFq6AIp7rLT4VjWtd2R9Yq/24g0hsB6hIwb0PaeXcZlZQVojwKSU665qJe8ottI86XWWjbQhHnmhkAycZi4gQWh077aNiby0SXPFUK0caM+0/2tUBWExnOU0ehWQIAu6c022sakpSyw9W3s2ejeWbyA9CKKLoVp2hfWLWjTfh01qz3DZq/Mt/7ECJfgqdMvywLQTvAVUPcBicKYG++rBdJy9JuI3oqACJTA1lxgcXmsr1f7LEjN2pyv1hyQmezficgoxQ5x3HwSyAPxO0iFe2n1K5rOHjQH/u8F04fm+uH9Xdb96fHx8irs+v/+3Zc+urw3489/AQ==);lineShape=1;sketch=1;hachureGap=4;jiggle=2;curveFitting=1;fontFamily=Architects Daughter;fontSource=https%3A%2F%2Ffonts.googleapis.com%2Fcss%3Ffamily%3DArchitects%2BDaughter;fontSize=20;" vertex="1" parent="1">
                    <mxGeometry x="192.6904916271119" y="670.449051525999" width="52.74361407240713" height="40.57423491708914" as="geometry"/>
                </mxCell>
            </root>
        </mxGraphModel>
    </diagram>
</mxfile>